<svg width="265" height="99" viewBox="0 0 265 99" fill="none" xmlns="http://www.w3.org/2000/svg">
<path d="M73.032 97.524C72.0933 97.4387 71.2827 97.0547 70.6 96.372C69.9173 95.6893 69.448 94.58 69.192 93.044C69.0213 92.788 68.936 92.532 68.936 92.276C68.936 91.9347 68.8933 91.5933 68.808 91.252C68.4667 91.0813 68.296 90.74 68.296 90.228V89.972C67.3573 86.9853 66.376 84.084 65.352 81.268C64.4133 78.3667 63.5173 75.252 62.664 71.924C61.7253 68.6813 60.744 65.6947 59.72 62.964C58.7813 60.148 57.8853 56.8627 57.032 53.108C55.0693 60.02 52.936 66.7613 50.632 73.332C48.4133 79.8173 46.3227 86.388 44.36 93.044V93.3C44.36 94.4947 44.232 95.5187 43.976 96.372C43.72 97.14 43.1653 97.524 42.312 97.524H24.136C23.4533 97.524 22.9413 97.3107 22.6 96.884C22.2587 96.4573 22.088 95.9453 22.088 95.348C17.224 82.036 13 68.6387 9.416 55.156C5.91733 41.588 2.84533 27.8067 0.2 13.812C0.2 13.1293 0.413333 12.4893 0.84 11.892C1.352 11.2947 1.94933 10.8253 2.632 10.484C3.05867 9.80133 3.69867 9.46 4.552 9.46H22.472C23.496 9.46 24.2213 9.88667 24.648 10.74C25.0747 11.508 25.16 12.276 24.904 13.044C26.2693 20.724 27.8053 28.7027 29.512 36.98C31.304 45.2573 33.2667 53.1507 35.4 60.66C37.0213 57.844 38.3013 54.9 39.24 51.828C40.264 48.756 41.1173 45.6413 41.8 42.484C42.568 39.2413 43.2933 36.0413 43.976 32.884C44.744 29.6413 45.7253 26.484 46.92 23.412C47.0907 22.8147 47.2613 22.26 47.432 21.748C47.6027 21.1507 47.8587 20.6813 48.2 20.34C48.5413 19.9987 49.0107 19.7427 49.608 19.572C50.2053 19.316 51.016 19.188 52.04 19.188C54.2587 19.0173 56.52 18.9747 58.824 19.06C61.128 19.06 63.2187 19.1453 65.096 19.316C65.608 19.1453 66.0773 19.1027 66.504 19.188C67.016 19.188 67.4 19.3587 67.656 19.7C68.2533 20.212 68.4667 20.8947 68.296 21.748C68.2107 22.516 68.2533 23.4547 68.424 24.564C69.3627 30.964 70.728 37.4067 72.52 43.892C74.3973 50.3773 76.4453 56.308 78.664 61.684C80.3707 53.748 82.0773 45.812 83.784 37.876C85.4907 29.8547 87.4533 21.9187 89.672 14.068C89.928 13.1293 90.1413 12.1907 90.312 11.252C90.568 10.3133 91.2933 9.63066 92.488 9.20399C95.7307 8.692 98.9307 8.564 102.088 8.81999C105.331 9.07599 108.531 9.11866 111.688 8.948C112.371 9.20399 112.883 9.67333 113.224 10.356C113.565 10.9533 113.651 11.5933 113.48 12.276C113.907 12.8733 113.992 13.556 113.736 14.324C111.005 21.9187 108.531 29.428 106.312 36.852C104.179 44.1907 102.088 51.6147 100.04 59.124C98.9307 63.3907 97.864 67.444 96.84 71.284C95.9013 75.0387 95.176 78.836 94.664 82.676C94.152 84.1267 93.6827 85.7053 93.256 87.412C92.8293 89.0333 92.3173 90.612 91.72 92.148C91.8907 93.8547 91.848 95.1773 91.592 96.116C91.336 97.0547 90.44 97.524 88.904 97.524C88.2213 97.6093 87.7093 97.6093 87.368 97.524C87.112 97.524 86.5573 97.4813 85.704 97.396C84.936 97.396 83.6133 97.396 81.736 97.396C79.8587 97.396 76.9573 97.4387 73.032 97.524ZM53.96 47.348C53.96 46.7507 54.1307 46.2813 54.472 45.94C54.8133 45.5133 55.1973 45.2147 55.624 45.044C56.136 44.788 56.6053 44.66 57.032 44.66C57.4587 44.66 57.8 44.788 58.056 45.044C58.568 45.3853 59.08 45.8547 59.592 46.452C60.104 47.0493 60.36 47.6893 60.36 48.372C60.7867 50.0787 61.2133 51.828 61.64 53.62C62.152 55.3267 62.664 57.0333 63.176 58.74C63.8587 58.5693 64.5413 58.484 65.224 58.484C65.992 58.484 66.7173 58.5267 67.4 58.612C69.6187 58.868 71.0267 59.4653 71.624 60.404C72.2213 61.2573 72.3067 62.2387 71.88 63.348C71.4533 64.4573 70.6853 65.5667 69.576 66.676C68.4667 67.7853 67.3147 68.6387 66.12 69.236L67.144 71.796L69.192 77.684L71.496 76.66C73.6293 75.7213 75.2933 75.38 76.488 75.636C77.768 75.892 78.6213 76.5747 79.048 77.684C79.56 78.708 79.688 79.988 79.432 81.524C79.176 83.06 78.536 84.6387 77.512 86.26C77.0853 87.028 76.488 87.668 75.72 88.18C74.952 88.6067 74.184 89.0333 73.416 89.46C73.5867 89.8867 73.7147 90.3133 73.8 90.74C73.9707 91.1667 74.1413 91.5933 74.312 92.02C74.312 92.02 74.3973 92.0627 74.568 92.148H86.6C86.9413 91.7213 87.2827 90.7827 87.624 89.332C87.9653 87.8813 88.4773 85.748 89.16 82.932C87.7947 81.9933 86.7707 80.6707 86.088 78.964C85.4907 77.2573 85.2773 75.7213 85.448 74.356C85.6187 72.9053 86.1733 71.8813 87.112 71.284C88.136 70.6013 89.6293 70.8147 91.592 71.924C92.2747 68.852 93.0427 65.78 93.896 62.708C94.8347 59.636 95.7733 56.308 96.712 52.724L98.248 46.58C97.5653 46.4093 97.0107 46.324 96.584 46.324C96.2427 46.2387 95.9013 46.1533 95.56 46.068C95.304 45.8973 95.0053 45.7267 94.664 45.556C94.3227 45.3 93.8533 44.916 93.256 44.404C92.0613 43.4653 91.2933 42.3987 90.952 41.204C90.696 40.0093 90.7387 38.9 91.08 37.876C91.4213 36.7667 92.0187 35.7853 92.872 34.932C93.8107 34.0787 94.8773 33.524 96.072 33.268C96.7547 33.0973 97.4373 33.1827 98.12 33.524C98.888 33.78 99.6133 33.9933 100.296 34.164L101.576 34.676C102.6 31.092 103.667 27.5507 104.776 24.052C105.885 20.468 106.995 16.9693 108.104 13.556C106.056 13.556 103.923 13.556 101.704 13.556C99.5707 13.4707 97.3947 13.556 95.176 13.812L93.256 19.444C94.792 19.0173 96.4133 18.7613 98.12 18.676C99.912 18.5053 101.149 18.5053 101.832 18.676C102.6 18.932 102.984 19.4013 102.984 20.084C102.728 21.2787 102.173 22.388 101.32 23.412C100.467 24.3507 99.4427 25.204 98.248 25.972C97.1387 26.74 95.9013 27.4653 94.536 28.148C93.1707 28.7453 91.8907 29.2147 90.696 29.556C90.184 32.0307 89.672 34.4627 89.16 36.852C88.648 39.2413 88.136 41.6307 87.624 44.02C87.624 44.1907 87.6667 44.3187 87.752 44.404C87.9227 45.5987 88.2213 46.7933 88.648 47.988C89.16 49.0973 89.6293 50.2493 90.056 51.444C90.4827 52.6387 90.7813 53.876 90.952 55.156C91.1227 56.3507 91.0373 57.588 90.696 58.868C90.6107 59.2947 90.3973 59.6787 90.056 60.02C89.7147 60.3613 89.3307 60.6173 88.904 60.788C87.7093 61.2147 86.6853 61.2573 85.832 60.916C85.064 60.4893 84.4667 59.8067 84.04 58.868C83.6987 60.148 83.3147 61.428 82.888 62.708C82.5467 63.9027 82.1627 65.0973 81.736 66.292C81.9067 66.7187 81.864 67.1453 81.608 67.572C81.4373 67.9133 81.352 68.34 81.352 68.852C80.328 69.7053 78.8773 69.7053 77 68.852C76.6587 68.2547 76.1893 67.3587 75.592 66.164C75.08 64.884 74.4827 63.476 73.8 61.94C73.2027 60.3187 72.5627 58.6547 71.88 56.948C71.1973 55.2413 70.5573 53.5347 69.96 51.828L67.784 45.428C66.3333 45.5987 64.9253 45.7267 63.56 45.812C62.1947 45.8973 60.9147 45.556 59.72 44.788C58.7813 44.1053 58.3547 43.3373 58.44 42.484C58.6107 41.5453 58.9947 40.6493 59.592 39.796C60.2747 38.9427 61.0853 38.132 62.024 37.364C63.048 36.596 63.9867 35.9987 64.84 35.572C64.328 33.6947 63.9013 31.8173 63.56 29.94C63.2187 28.0627 62.92 26.1853 62.664 24.308C61.64 24.2227 60.616 24.18 59.592 24.18C58.568 24.0947 57.544 24.052 56.52 24.052C56.6907 25.332 56.8613 26.6547 57.032 28.02C57.2027 29.3853 57.16 30.708 56.904 31.988C56.4773 34.9747 55.4533 36.6387 53.832 36.98C52.2107 37.3213 50.5893 36.596 48.968 34.804C48.5413 36.5107 48.1147 38.2173 47.688 39.924C47.2613 41.6307 46.792 43.38 46.28 45.172C47.56 45.684 48.6267 46.6227 49.48 47.988C50.4187 49.3533 50.9733 50.7613 51.144 52.212C51.3147 53.6627 51.016 54.9427 50.248 56.052C49.5653 57.1613 48.2853 57.6307 46.408 57.46C45.64 57.46 44.9147 57.46 44.232 57.46C43.6347 57.46 42.9947 57.3747 42.312 57.204C41.2027 60.6173 39.7093 64.0733 37.832 67.572C37.832 68.596 37.576 69.4067 37.064 70.004C36.6373 71.3693 35.8693 71.9667 34.76 71.796C33.6507 71.54 32.9253 70.8573 32.584 69.748V70.004C32.2427 69.5773 32.0293 69.1933 31.944 68.852C31.944 68.4253 31.9867 68.0413 32.072 67.7C31.3893 65.396 30.7067 63.0493 30.024 60.66C29.3413 58.1853 28.6587 55.668 27.976 53.108C26.5253 53.2787 24.776 53.364 22.728 53.364C20.7653 53.2787 19.0587 52.596 17.608 51.316C17.2667 50.9747 17.1387 50.548 17.224 50.036C17.6507 48.4147 18.8027 47.2627 20.68 46.58C22.6427 45.812 24.4773 45.3 26.184 45.044C25.5867 42.5693 25.032 40.1373 24.52 37.748C24.008 35.2733 23.496 32.7987 22.984 30.324C22.472 30.4093 21.7467 30.5373 20.808 30.708C19.9547 30.8787 19.016 30.964 17.992 30.964C16.968 30.964 15.944 30.7933 14.92 30.452C13.9813 30.1107 13.128 29.428 12.36 28.404C11.4213 27.0387 11.1653 25.9293 11.592 25.076C12.0187 24.2227 12.744 23.5827 13.768 23.156C14.8773 22.7293 16.1147 22.4307 17.48 22.26C18.9307 22.0893 20.168 22.004 21.192 22.004L19.912 14.708H13.256C13.256 15.988 13.1707 17.1827 13 18.292C12.8293 19.4013 12.2747 20.4253 11.336 21.364C10.9947 21.7053 10.4827 22.0467 9.8 22.388C9.20267 22.7293 8.52 22.9853 7.752 23.156L10.696 36.596C11.976 36.2547 13.256 35.956 14.536 35.7C15.9013 35.444 17.1387 35.6147 18.248 36.212C19.6133 37.1507 20.296 38.0893 20.296 39.028C20.296 39.9667 19.912 40.8627 19.144 41.716C18.376 42.5693 17.3947 43.38 16.2 44.148C15.0053 44.8307 13.896 45.3853 12.872 45.812L16.328 59.636C17.4373 59.4653 18.504 59.2947 19.528 59.124C20.6373 58.868 21.6187 58.7827 22.472 58.868C23.4107 58.9533 24.1787 59.2947 24.776 59.892C25.4587 60.404 26.0133 61.3427 26.44 62.708C26.696 63.5613 26.6107 64.3293 26.184 65.012C25.8427 65.6093 25.3733 66.2067 24.776 66.804C24.008 67.4867 23.112 67.9987 22.088 68.34C21.064 68.6813 20.0827 69.0653 19.144 69.492L21.32 76.916C22.7707 76.404 24.2213 75.7213 25.672 74.868C27.1227 73.9293 28.6587 73.5453 30.28 73.716C32.4133 74.0573 33.608 74.8253 33.864 76.02C34.12 77.2147 33.8213 78.58 32.968 80.116C32.1147 81.652 30.92 83.188 29.384 84.724C27.9333 86.26 26.568 87.54 25.288 88.564C25.4587 89.1613 25.6293 89.7587 25.8 90.356C26.056 90.9533 26.2693 91.5507 26.44 92.148H38.984C39.1547 91.124 39.4533 90.1853 39.88 89.332C40.392 88.4787 40.8187 87.7107 41.16 87.028C41.672 85.5773 42.1413 84.1267 42.568 82.676C43.08 81.2253 43.5493 79.7747 43.976 78.324C43.1227 77.812 42.2267 77.1293 41.288 76.276C40.3493 75.4227 39.5813 74.5267 38.984 73.588C38.3867 72.564 38.088 71.5827 38.088 70.644C38.088 69.7053 38.6 68.8947 39.624 68.212C40.7333 67.5293 41.928 67.2307 43.208 67.316C44.5733 67.4013 45.896 67.5293 47.176 67.7C48.1147 64.2013 49.1387 60.7453 50.248 57.332C51.3573 53.9187 52.5947 50.5907 53.96 47.348ZM24.392 86.132C25.16 85.4493 26.0133 84.6813 26.952 83.828C27.8907 82.8893 28.7013 81.9507 29.384 81.012C30.152 80.0733 30.664 79.22 30.92 78.452C31.2613 77.5987 31.176 76.9587 30.664 76.532C30.408 76.276 29.9387 76.2333 29.256 76.404C28.5733 76.4893 27.8053 76.7027 26.952 77.044C26.0987 77.3853 25.2453 77.7693 24.392 78.196C23.5387 78.6227 22.7707 78.964 22.088 79.22L24.392 86.132ZM72.648 87.284C74.184 86.0893 75.464 84.724 76.488 83.188C77.5973 81.5667 77.6827 79.9453 76.744 78.324C76.5733 78.068 76.1467 77.94 75.464 77.94C74.7813 77.94 74.056 78.068 73.288 78.324C72.52 78.4947 71.7947 78.7507 71.112 79.092C70.5147 79.348 70.1733 79.604 70.088 79.86L72.648 87.284ZM100.936 36.98L99.784 36.596C97.3947 35.9987 95.688 35.9987 94.664 36.596C93.7253 37.1933 93.2987 38.004 93.384 39.028C93.4693 39.9667 93.9813 40.9907 94.92 42.1C95.944 43.124 97.2667 43.8493 98.888 44.276L100.936 36.98ZM51.784 24.308C51.3573 25.5027 50.9733 26.74 50.632 28.02C50.376 29.2147 50.0773 30.4093 49.736 31.604L50.12 31.988C51.4 34.036 52.3387 34.9747 52.936 34.804C53.5333 34.548 53.9173 33.8227 54.088 32.628C54.2587 31.4333 54.3013 29.9827 54.216 28.276C54.1307 26.484 54.0453 25.076 53.96 24.052C53.5333 24.052 53.1493 24.0947 52.808 24.18C52.552 24.18 52.2107 24.2227 51.784 24.308ZM18.504 67.188C19.6987 66.5907 20.936 65.9933 22.216 65.396C23.496 64.7133 24.136 63.988 24.136 63.22C24.0507 62.452 23.752 61.94 23.24 61.684C22.8133 61.3427 22.216 61.172 21.448 61.172C20.7653 61.172 19.9973 61.2573 19.144 61.428C18.376 61.5987 17.6507 61.7693 16.968 61.94L18.504 67.188ZM21.704 24.564C20.5947 24.3933 19.4427 24.308 18.248 24.308C17.1387 24.308 16.1147 24.6067 15.176 25.204C14.92 25.3747 14.7067 25.5453 14.536 25.716C14.4507 25.8867 14.408 26.1853 14.408 26.612C14.4933 27.2093 14.792 27.636 15.304 27.892C15.9013 28.148 16.584 28.3187 17.352 28.404C18.12 28.4893 18.9733 28.532 19.912 28.532C20.8507 28.4467 21.704 28.3187 22.472 28.148L21.704 24.564ZM43.208 54.9C43.72 54.9853 44.232 55.028 44.744 55.028C45.3413 55.028 45.8533 55.028 46.28 55.028C47.2187 54.9427 47.8587 54.6867 48.2 54.26C48.6267 53.748 48.84 53.1933 48.84 52.596C48.84 51.9133 48.6693 51.2307 48.328 50.548C47.9867 49.78 47.6027 49.0973 47.176 48.5C46.8347 48.1587 46.3227 47.8173 45.64 47.476L43.208 54.9ZM65.352 66.804C67.4853 65.78 68.7653 64.8413 69.192 63.988C69.6187 63.0493 69.576 62.2813 69.064 61.684C68.552 61.0867 67.7413 60.7453 66.632 60.66C65.5227 60.4893 64.5413 60.6173 63.688 61.044L65.352 66.804ZM92.36 22.644C92.1893 23.3267 92.0187 24.0093 91.848 24.692C91.6773 25.2893 91.5067 25.9293 91.336 26.612C93.0427 25.9293 94.7067 25.1613 96.328 24.308C97.9493 23.3693 99.144 22.26 99.912 20.98C98.7173 20.8947 97.5227 21.0227 96.328 21.364C95.1333 21.62 93.9813 21.9613 92.872 22.388L92.36 22.644ZM46.408 70.26C45.4693 70.0893 44.5307 70.004 43.592 70.004C42.7387 69.9187 41.8427 70.0467 40.904 70.388C40.7333 71.4973 41.0747 72.6067 41.928 73.716C42.7813 74.74 43.72 75.508 44.744 76.02L46.408 70.26ZM7.24 20.724C8.86133 20.468 9.84267 19.7853 10.184 18.676C10.5253 17.4813 10.696 16.1587 10.696 14.708H6.088L7.24 20.724ZM12.232 43.252C13.6827 42.74 15.048 41.9293 16.328 40.82C17.4373 39.8813 17.992 39.2413 17.992 38.9C17.992 38.4733 17.6507 38.26 16.968 38.26C16.2853 38.26 15.3893 38.3453 14.28 38.516C13.256 38.6867 12.232 38.9 11.208 39.156L12.232 43.252ZM86.472 48.628C86.3013 49.652 86.088 50.676 85.832 51.7C85.576 52.6387 85.32 53.62 85.064 54.644C85.2347 55.412 85.4053 56.1373 85.576 56.82C85.832 57.4173 86.216 57.9293 86.728 58.356C86.8133 58.356 86.8987 58.3987 86.984 58.484C87.752 58.3133 88.2213 57.8867 88.392 57.204C88.5627 56.5213 88.5627 55.7107 88.392 54.772C88.2213 53.8333 87.9227 52.852 87.496 51.828C87.1547 50.7187 86.8133 49.652 86.472 48.628ZM65.48 38.004C64.456 38.4307 63.432 39.2413 62.408 40.436C61.5547 41.2893 61.1707 41.9293 61.256 42.356C61.3413 42.6973 61.6827 42.9533 62.28 43.124C62.8773 43.2093 63.6027 43.252 64.456 43.252C65.3947 43.1667 66.248 43.0387 67.016 42.868L65.48 38.004ZM26.696 47.348C25.5013 47.604 24.392 48.0307 23.368 48.628C22.344 49.2253 21.2773 49.78 20.168 50.292C20.936 50.8893 22.0453 51.188 23.496 51.188C24.9467 51.1027 26.2693 50.9747 27.464 50.804L26.696 47.348ZM90.952 74.356C90.184 73.588 89.416 73.1613 88.648 73.076C87.624 74.1 87.3253 75.3373 87.752 76.788C88.1787 78.1533 88.8613 79.2627 89.8 80.116L90.952 74.356ZM124.332 98.164C123.393 98.164 122.711 97.6947 122.284 96.756C121.943 95.9027 121.985 95.092 122.412 94.324V36.34C121.9 35.4013 121.985 34.42 122.668 33.396C123.009 32.7987 123.479 32.4573 124.076 32.372C124.759 32.2013 125.441 32.244 126.124 32.5H141.484C141.996 32.5 142.423 32.6707 142.764 33.012C143.105 33.268 143.361 33.6093 143.532 34.036C144.471 34.548 144.812 35.3587 144.556 36.468C144.044 41.588 143.788 46.4947 143.788 51.188C143.788 55.796 143.788 60.66 143.788 65.78C143.788 67.7427 143.745 69.9187 143.66 72.308C143.575 74.6973 143.489 77.1293 143.404 79.604C143.319 82.0787 143.276 84.5107 143.276 86.9C143.276 89.204 143.361 91.2947 143.532 93.172C143.532 93.2573 143.532 93.3427 143.532 93.428C143.617 93.428 143.66 93.4707 143.66 93.556C144.087 93.812 144.385 94.196 144.556 94.708C144.727 95.22 144.727 95.732 144.556 96.244C144.471 96.756 144.257 97.1827 143.916 97.524C143.575 97.9507 143.105 98.164 142.508 98.164H124.332ZM137.516 25.204C136.151 25.46 134.657 25.5453 133.036 25.46C131.415 25.2893 129.879 24.9053 128.428 24.308C126.977 23.7107 125.655 22.8573 124.46 21.748C123.351 20.5533 122.625 19.0173 122.284 17.14C121.772 15.604 121.516 13.9827 121.516 12.276C121.601 10.484 121.9 8.82 122.412 7.284C123.009 5.66266 123.863 4.29733 124.972 3.188C126.167 2.07866 127.617 1.39599 129.324 1.13999C132.908 0.627993 136.236 1.09733 139.308 2.548C142.465 3.91333 144.513 6.08933 145.452 9.076C145.964 10.868 146.177 12.6173 146.092 14.324C146.007 16.0307 145.623 17.6093 144.94 19.06C144.257 20.5107 143.276 21.7907 141.996 22.9C140.801 23.924 139.308 24.692 137.516 25.204ZM136.876 62.836C137.644 62.2387 138.284 62.2813 138.796 62.964C138.711 60.2333 138.668 57.5027 138.668 54.772C138.668 52.0413 138.753 49.3107 138.924 46.58C137.559 47.0067 136.236 47.476 134.956 47.988C133.761 48.5 132.439 48.5427 130.988 48.116C129.793 47.7747 129.068 47.22 128.812 46.452C128.556 45.5987 128.599 44.66 128.94 43.636C129.367 42.612 129.964 41.588 130.732 40.564C131.5 39.4547 132.353 38.4733 133.292 37.62H127.404V53.108C130.135 53.364 131.969 53.876 132.908 54.644C133.847 55.412 134.188 56.2653 133.932 57.204C133.676 58.1427 132.908 59.124 131.628 60.148C130.433 61.0867 129.025 61.94 127.404 62.708V81.524C128.172 81.4387 128.983 81.4387 129.836 81.524C130.519 81.6093 131.031 81.8227 131.372 82.164C131.799 82.5053 132.225 82.8893 132.652 83.316C133.42 84.084 133.719 84.852 133.548 85.62C133.463 86.3027 133.121 86.9853 132.524 87.668C131.927 88.2653 131.116 88.8627 130.092 89.46C129.153 90.0573 128.257 90.5267 127.404 90.868V93.172H134.06C134.145 90.868 134.487 88.5213 135.084 86.132C135.681 83.7427 136.833 81.8227 138.54 80.372C138.625 80.372 138.668 80.372 138.668 80.372C138.668 80.2867 138.711 80.244 138.796 80.244V70.644C137.943 71.156 137.089 71.7107 136.236 72.308C135.468 72.82 134.657 73.2893 133.804 73.716C132.951 74.1427 132.097 74.4413 131.244 74.612C130.391 74.7827 129.537 74.6973 128.684 74.356C128.172 74.1 127.873 73.6733 127.788 73.076C127.788 71.4547 128.215 70.0467 129.068 68.852C129.921 67.6573 130.86 66.676 131.884 65.908C132.993 65.0547 134.017 64.372 134.956 63.86C135.98 63.348 136.62 63.0067 136.876 62.836ZM127.404 15.22C128.513 14.7933 129.665 14.7933 130.86 15.22C132.14 15.5613 133.164 16.3293 133.932 17.524C134.103 17.9507 134.188 18.42 134.188 18.932C134.188 19.444 134.231 19.956 134.316 20.468C134.657 20.468 134.999 20.468 135.34 20.468C135.681 20.3827 136.065 20.2973 136.492 20.212C137.687 19.956 138.583 19.4867 139.18 18.804C139.777 18.1213 140.204 17.3107 140.46 16.372H140.204C139.521 16.2867 138.625 16.0733 137.516 15.732C136.492 15.3907 135.511 14.9213 134.572 14.324C133.719 13.7267 133.036 13.0013 132.524 12.148C132.012 11.2947 131.969 10.356 132.396 9.33199C132.567 8.73466 132.865 8.22266 133.292 7.796C133.804 7.36933 134.188 6.9 134.444 6.38799C134.017 6.21733 133.505 6.132 132.908 6.132C132.396 6.132 131.884 6.132 131.372 6.132C130.092 6.132 129.111 6.47333 128.428 7.156C127.831 7.83866 127.404 8.64933 127.148 9.588C126.892 10.5267 126.807 11.508 126.892 12.532C126.977 13.556 127.148 14.452 127.404 15.22ZM137.004 37.62C136.577 37.876 135.937 38.4307 135.084 39.284C134.231 40.1373 133.463 41.0333 132.78 41.972C132.097 42.8253 131.585 43.636 131.244 44.404C130.988 45.172 131.201 45.6413 131.884 45.812C133.079 46.1533 134.273 46.068 135.468 45.556C136.748 44.9587 137.985 44.4893 139.18 44.148C139.265 42.0147 139.521 39.8387 139.948 37.62H137.004ZM140.46 11.124C140.204 10.0147 139.777 9.16133 139.18 8.564C138.583 7.96666 137.815 7.45466 136.876 7.02799C136.62 7.45466 136.279 7.83866 135.852 8.17999C135.511 8.43599 135.255 8.692 135.084 8.948C134.743 9.716 134.7 10.3987 134.956 10.996C135.297 11.5933 135.767 12.1053 136.364 12.532C136.961 12.9587 137.601 13.3 138.284 13.556C139.052 13.7267 139.735 13.812 140.332 13.812L140.844 14.068C140.844 13.1293 140.716 12.148 140.46 11.124ZM138.796 64.5C138.711 64.5 138.668 64.5427 138.668 64.628C137.985 65.14 137.217 65.6093 136.364 66.036C135.511 66.4627 134.657 66.932 133.804 67.444C132.951 67.956 132.183 68.596 131.5 69.364C130.903 70.132 130.476 71.1133 130.22 72.308C131.415 72.2227 132.737 71.668 134.188 70.644C135.724 69.62 137.26 68.6387 138.796 67.7V65.78V64.5ZM139.052 93.172C138.967 91.7213 138.881 90.2707 138.796 88.82C138.796 87.284 138.796 85.6627 138.796 83.956C138.028 85.236 137.473 86.7293 137.132 88.436C136.791 90.0573 136.577 91.636 136.492 93.172H139.052ZM129.708 83.956C129.281 83.6147 128.513 83.5293 127.404 83.7V88.564C128.599 88.052 129.58 87.412 130.348 86.644C131.116 85.7907 130.903 84.8947 129.708 83.956ZM131.5 56.436C130.817 56.0947 130.135 55.8813 129.452 55.796C128.769 55.7107 128.087 55.668 127.404 55.668V59.892C128.087 59.4653 128.769 58.996 129.452 58.484C130.22 57.8867 130.903 57.2467 131.5 56.564V56.436ZM128.3 17.652C128.897 19.0173 130.092 19.8707 131.884 20.212C131.799 19.3587 131.585 18.676 131.244 18.164C130.988 17.5667 130.177 17.3533 128.812 17.524C128.556 17.524 128.385 17.5667 128.3 17.652ZM160.457 98.164C159.518 98.164 158.836 97.6947 158.409 96.756C158.068 95.9027 158.11 95.092 158.537 94.324V36.34C158.025 35.4013 158.11 34.42 158.793 33.396C159.134 32.7987 159.604 32.4573 160.201 32.372C160.884 32.2013 161.566 32.244 162.249 32.5H177.609C178.121 32.5 178.548 32.6707 178.889 33.012C179.23 33.268 179.486 33.6093 179.657 34.036C180.596 34.548 180.937 35.3587 180.681 36.468C180.169 41.588 179.913 46.4947 179.913 51.188C179.913 55.796 179.913 60.66 179.913 65.78C179.913 67.7427 179.87 69.9187 179.785 72.308C179.7 74.6973 179.614 77.1293 179.529 79.604C179.444 82.0787 179.401 84.5107 179.401 86.9C179.401 89.204 179.486 91.2947 179.657 93.172C179.657 93.2573 179.657 93.3427 179.657 93.428C179.742 93.428 179.785 93.4707 179.785 93.556C180.212 93.812 180.51 94.196 180.681 94.708C180.852 95.22 180.852 95.732 180.681 96.244C180.596 96.756 180.382 97.1827 180.041 97.524C179.7 97.9507 179.23 98.164 178.633 98.164H160.457ZM173.641 25.204C172.276 25.46 170.782 25.5453 169.161 25.46C167.54 25.2893 166.004 24.9053 164.553 24.308C163.102 23.7107 161.78 22.8573 160.585 21.748C159.476 20.5533 158.75 19.0173 158.409 17.14C157.897 15.604 157.641 13.9827 157.641 12.276C157.726 10.484 158.025 8.82 158.537 7.284C159.134 5.66266 159.988 4.29733 161.097 3.188C162.292 2.07866 163.742 1.39599 165.449 1.13999C169.033 0.627993 172.361 1.09733 175.433 2.548C178.59 3.91333 180.638 6.08933 181.577 9.076C182.089 10.868 182.302 12.6173 182.217 14.324C182.132 16.0307 181.748 17.6093 181.065 19.06C180.382 20.5107 179.401 21.7907 178.121 22.9C176.926 23.924 175.433 24.692 173.641 25.204ZM173.001 62.836C173.769 62.2387 174.409 62.2813 174.921 62.964C174.836 60.2333 174.793 57.5027 174.793 54.772C174.793 52.0413 174.878 49.3107 175.049 46.58C173.684 47.0067 172.361 47.476 171.081 47.988C169.886 48.5 168.564 48.5427 167.113 48.116C165.918 47.7747 165.193 47.22 164.937 46.452C164.681 45.5987 164.724 44.66 165.065 43.636C165.492 42.612 166.089 41.588 166.857 40.564C167.625 39.4547 168.478 38.4733 169.417 37.62H163.529V53.108C166.26 53.364 168.094 53.876 169.033 54.644C169.972 55.412 170.313 56.2653 170.057 57.204C169.801 58.1427 169.033 59.124 167.753 60.148C166.558 61.0867 165.15 61.94 163.529 62.708V81.524C164.297 81.4387 165.108 81.4387 165.961 81.524C166.644 81.6093 167.156 81.8227 167.497 82.164C167.924 82.5053 168.35 82.8893 168.777 83.316C169.545 84.084 169.844 84.852 169.673 85.62C169.588 86.3027 169.246 86.9853 168.649 87.668C168.052 88.2653 167.241 88.8627 166.217 89.46C165.278 90.0573 164.382 90.5267 163.529 90.868V93.172H170.185C170.27 90.868 170.612 88.5213 171.209 86.132C171.806 83.7427 172.958 81.8227 174.665 80.372C174.75 80.372 174.793 80.372 174.793 80.372C174.793 80.2867 174.836 80.244 174.921 80.244V70.644C174.068 71.156 173.214 71.7107 172.361 72.308C171.593 72.82 170.782 73.2893 169.929 73.716C169.076 74.1427 168.222 74.4413 167.369 74.612C166.516 74.7827 165.662 74.6973 164.809 74.356C164.297 74.1 163.998 73.6733 163.913 73.076C163.913 71.4547 164.34 70.0467 165.193 68.852C166.046 67.6573 166.985 66.676 168.009 65.908C169.118 65.0547 170.142 64.372 171.081 63.86C172.105 63.348 172.745 63.0067 173.001 62.836ZM163.529 15.22C164.638 14.7933 165.79 14.7933 166.985 15.22C168.265 15.5613 169.289 16.3293 170.057 17.524C170.228 17.9507 170.313 18.42 170.313 18.932C170.313 19.444 170.356 19.956 170.441 20.468C170.782 20.468 171.124 20.468 171.465 20.468C171.806 20.3827 172.19 20.2973 172.617 20.212C173.812 19.956 174.708 19.4867 175.305 18.804C175.902 18.1213 176.329 17.3107 176.585 16.372H176.329C175.646 16.2867 174.75 16.0733 173.641 15.732C172.617 15.3907 171.636 14.9213 170.697 14.324C169.844 13.7267 169.161 13.0013 168.649 12.148C168.137 11.2947 168.094 10.356 168.521 9.33199C168.692 8.73466 168.99 8.22266 169.417 7.796C169.929 7.36933 170.313 6.9 170.569 6.38799C170.142 6.21733 169.63 6.132 169.033 6.132C168.521 6.132 168.009 6.132 167.497 6.132C166.217 6.132 165.236 6.47333 164.553 7.156C163.956 7.83866 163.529 8.64933 163.273 9.588C163.017 10.5267 162.932 11.508 163.017 12.532C163.102 13.556 163.273 14.452 163.529 15.22ZM173.129 37.62C172.702 37.876 172.062 38.4307 171.209 39.284C170.356 40.1373 169.588 41.0333 168.905 41.972C168.222 42.8253 167.71 43.636 167.369 44.404C167.113 45.172 167.326 45.6413 168.009 45.812C169.204 46.1533 170.398 46.068 171.593 45.556C172.873 44.9587 174.11 44.4893 175.305 44.148C175.39 42.0147 175.646 39.8387 176.073 37.62H173.129ZM176.585 11.124C176.329 10.0147 175.902 9.16133 175.305 8.564C174.708 7.96666 173.94 7.45466 173.001 7.02799C172.745 7.45466 172.404 7.83866 171.977 8.17999C171.636 8.43599 171.38 8.692 171.209 8.948C170.868 9.716 170.825 10.3987 171.081 10.996C171.422 11.5933 171.892 12.1053 172.489 12.532C173.086 12.9587 173.726 13.3 174.409 13.556C175.177 13.7267 175.86 13.812 176.457 13.812L176.969 14.068C176.969 13.1293 176.841 12.148 176.585 11.124ZM174.921 64.5C174.836 64.5 174.793 64.5427 174.793 64.628C174.11 65.14 173.342 65.6093 172.489 66.036C171.636 66.4627 170.782 66.932 169.929 67.444C169.076 67.956 168.308 68.596 167.625 69.364C167.028 70.132 166.601 71.1133 166.345 72.308C167.54 72.2227 168.862 71.668 170.313 70.644C171.849 69.62 173.385 68.6387 174.921 67.7V65.78V64.5ZM175.177 93.172C175.092 91.7213 175.006 90.2707 174.921 88.82C174.921 87.284 174.921 85.6627 174.921 83.956C174.153 85.236 173.598 86.7293 173.257 88.436C172.916 90.0573 172.702 91.636 172.617 93.172H175.177ZM165.833 83.956C165.406 83.6147 164.638 83.5293 163.529 83.7V88.564C164.724 88.052 165.705 87.412 166.473 86.644C167.241 85.7907 167.028 84.8947 165.833 83.956ZM167.625 56.436C166.942 56.0947 166.26 55.8813 165.577 55.796C164.894 55.7107 164.212 55.668 163.529 55.668V59.892C164.212 59.4653 164.894 58.996 165.577 58.484C166.345 57.8867 167.028 57.2467 167.625 56.564V56.436ZM164.425 17.652C165.022 19.0173 166.217 19.8707 168.009 20.212C167.924 19.3587 167.71 18.676 167.369 18.164C167.113 17.5667 166.302 17.3533 164.937 17.524C164.681 17.524 164.51 17.5667 164.425 17.652ZM192.486 30.452C191.718 30.452 191.163 30.2387 190.822 29.812C190.481 29.3 190.267 28.7027 190.182 28.02C189.67 27.6787 189.414 27.0813 189.414 26.228V13.556C189.414 12.532 189.713 11.7213 190.31 11.124C190.395 10.612 190.609 10.1853 190.95 9.84399C191.291 9.41733 191.803 9.20399 192.486 9.20399H260.454C261.563 9.20399 262.246 9.41733 262.502 9.84399C262.758 10.2707 263.142 10.7827 263.654 11.38C263.654 14.6227 263.782 17.6093 264.038 20.34C264.379 22.9853 264.251 25.6733 263.654 28.404C263.654 29.428 263.441 30.196 263.014 30.708C262.587 31.22 262.075 31.476 261.478 31.476H237.542C237.542 41.8013 237.67 52.1267 237.926 62.452C238.267 72.692 238.694 83.2307 239.206 94.068C239.206 95.348 238.609 96.116 237.414 96.372C236.817 96.9693 236.006 97.268 234.982 97.268H215.91C215.398 97.268 214.886 97.0547 214.374 96.628C213.947 96.2013 213.734 95.732 213.734 95.22C213.734 83.956 213.734 72.9907 213.734 62.324C213.819 51.6573 214.118 40.9053 214.63 30.068C211.046 30.1533 207.462 30.2387 203.878 30.324C200.379 30.4093 196.582 30.452 192.486 30.452ZM194.662 25.076C196.881 25.076 199.014 25.076 201.062 25.076C203.195 24.9907 205.243 24.948 207.206 24.948C208.23 23.0707 209.553 21.492 211.174 20.212C212.795 18.8467 214.417 17.8653 216.038 17.268C217.659 16.5853 219.153 16.244 220.518 16.244C221.969 16.244 222.95 16.5853 223.462 17.268C224.059 17.9507 224.059 19.0173 223.462 20.468C222.95 21.8333 221.585 23.54 219.366 25.588C219.878 26.1 220.134 26.6547 220.134 27.252L219.75 35.572C221.371 35.2307 223.035 35.4867 224.742 36.34C226.534 37.1933 227.771 38.3027 228.454 39.668C228.966 40.5213 228.966 41.4173 228.454 42.356C228.027 43.2093 227.302 44.02 226.278 44.788C225.339 45.556 224.23 46.2813 222.95 46.964C221.67 47.5613 220.475 48.0307 219.366 48.372C219.281 51.6147 219.195 54.8147 219.11 57.972C219.11 61.044 219.11 64.1587 219.11 67.316C220.049 67.2307 221.03 67.188 222.054 67.188C223.078 67.1027 223.889 67.316 224.486 67.828C225.425 68.7667 225.723 69.7907 225.382 70.9C225.126 71.924 224.827 72.948 224.486 73.972C224.401 74.1427 224.443 74.5267 224.614 75.124C224.87 75.38 225.041 75.508 225.126 75.508C226.065 75.6787 227.003 76.02 227.942 76.532C228.966 76.9587 229.307 77.7693 228.966 78.964C228.795 79.732 228.326 80.4147 227.558 81.012C226.79 81.524 225.937 81.9933 224.998 82.42C224.059 82.7613 223.035 83.06 221.926 83.316C220.902 83.572 219.963 83.7427 219.11 83.828V92.02H223.974C224.571 89.972 225.766 88.3933 227.558 87.284C229.35 86.1747 231.313 85.5347 233.446 85.364C233.105 76.5747 232.849 67.828 232.678 59.124C232.166 59.124 231.697 59.124 231.27 59.124C230.843 59.124 230.417 59.0813 229.99 58.996C228.369 58.9107 226.79 58.612 225.254 58.1C222.609 57.2467 221.201 56.2227 221.03 55.028C220.945 53.8333 221.457 52.7667 222.566 51.828C223.761 50.804 225.297 50.036 227.174 49.524C229.137 48.9267 230.886 48.8413 232.422 49.268C232.337 46.196 232.294 43.1667 232.294 40.18C232.294 37.108 232.294 34.036 232.294 30.964C231.782 30.6227 231.441 30.196 231.27 29.684C231.099 29.172 231.099 28.66 231.27 28.148C231.441 27.636 231.739 27.2093 232.166 26.868C232.678 26.4413 233.361 26.228 234.214 26.228H242.406C242.918 25.204 243.643 24.18 244.582 23.156C245.521 22.0467 246.545 21.0653 247.654 20.212C248.849 19.2733 250.043 18.5907 251.238 18.164C252.518 17.652 253.755 17.524 254.95 17.78C255.291 17.8653 255.633 18.1213 255.974 18.548C256.23 19.4867 256.315 20.724 256.23 22.26C256.23 23.7107 255.974 25.0333 255.462 26.228H258.662C258.833 24.3507 258.875 22.4733 258.79 20.596C258.705 18.7187 258.577 16.6707 258.406 14.452H243.814C243.046 15.22 242.278 16.0307 241.51 16.884C240.742 17.652 239.974 18.4627 239.206 19.316C238.438 20.084 237.585 20.8093 236.646 21.492C235.707 22.1747 234.683 22.7293 233.574 23.156C232.806 23.412 231.953 23.5827 231.014 23.668C230.161 23.668 229.393 23.54 228.71 23.284C228.027 22.9427 227.515 22.4307 227.174 21.748C226.833 21.0653 226.875 20.1693 227.302 19.06C227.473 18.1213 227.857 17.3107 228.454 16.628C229.137 15.9453 229.691 15.22 230.118 14.452H212.582C211.302 15.476 209.809 16.5853 208.102 17.78C206.395 18.9747 204.731 19.956 203.11 20.724C201.574 21.4067 200.251 21.748 199.142 21.748C198.033 21.748 197.478 21.0227 197.478 19.572C197.478 18.4627 197.819 17.524 198.502 16.756C199.27 15.988 199.995 15.22 200.678 14.452H194.662V25.076ZM219.11 81.396C220.39 81.2253 221.713 80.884 223.078 80.372C224.443 79.86 225.595 79.1347 226.534 78.196C226.534 78.1107 226.363 78.068 226.022 78.068C225.766 78.068 225.425 78.068 224.998 78.068C224.571 77.9827 224.102 77.8547 223.59 77.684C223.163 77.5133 222.779 77.2147 222.438 76.788C222.011 76.276 221.798 75.7213 221.798 75.124C221.798 74.5267 221.883 73.972 222.054 73.46C222.31 72.8627 222.523 72.2653 222.694 71.668C222.865 71.0707 222.907 70.4733 222.822 69.876C222.225 69.7053 221.627 69.6627 221.03 69.748C220.433 69.8333 219.793 69.9187 219.11 70.004V81.396ZM229.606 21.108C232.081 21.108 234.129 20.4253 235.75 19.06C237.371 17.6947 238.95 16.1587 240.486 14.452H233.062C232.465 15.6467 231.654 16.7133 230.63 17.652C229.691 18.5907 229.35 19.7427 229.606 21.108ZM219.622 38.516C219.622 39.7107 219.579 40.948 219.494 42.228C219.494 43.4227 219.451 44.6173 219.366 45.812C220.902 45.3853 222.438 44.7027 223.974 43.764C225.595 42.74 226.278 41.6307 226.022 40.436C225.937 39.924 225.638 39.4973 225.126 39.156C224.614 38.8147 224.017 38.5587 223.334 38.388C222.737 38.2173 222.097 38.132 221.414 38.132C220.731 38.132 220.134 38.26 219.622 38.516ZM216.55 24.82C217.489 24.1373 218.427 23.2413 219.366 22.132C220.39 21.0227 220.987 19.9133 221.158 18.804C220.646 18.4627 219.921 18.4627 218.982 18.804C218.043 19.06 217.062 19.5293 216.038 20.212C215.014 20.8947 213.99 21.6627 212.966 22.516C211.942 23.3693 211.131 24.1373 210.534 24.82H215.91H216.55ZM232.55 56.564C232.55 55.8813 232.507 55.156 232.422 54.388C232.422 53.5347 232.422 52.724 232.422 51.956C231.995 51.7853 231.313 51.7427 230.374 51.828C229.521 51.9133 228.625 52.084 227.686 52.34C226.747 52.5107 225.851 52.7667 224.998 53.108C224.23 53.4493 223.761 53.7907 223.59 54.132C223.675 54.5587 224.017 54.9427 224.614 55.284C225.297 55.54 226.065 55.796 226.918 56.052C227.857 56.2227 228.838 56.3507 229.862 56.436C230.886 56.5213 231.782 56.564 232.55 56.564ZM253.926 20.084C253.414 19.9987 252.774 20.1693 252.006 20.596C251.238 20.9373 250.427 21.4493 249.574 22.132C248.806 22.7293 248.038 23.412 247.27 24.18C246.502 24.948 245.862 25.6307 245.35 26.228H252.134C252.731 25.204 253.243 24.2653 253.67 23.412C254.182 22.4733 254.267 21.364 253.926 20.084ZM233.702 92.02C233.617 91.3373 233.574 90.6547 233.574 89.972C233.574 89.2893 233.574 88.6067 233.574 87.924C232.379 88.18 231.227 88.564 230.118 89.076C229.094 89.588 228.027 90.1427 226.918 90.74L226.534 92.02H233.702ZM200.294 18.932C201.745 18.8467 203.238 18.3773 204.774 17.524C206.395 16.6707 207.931 15.6467 209.382 14.452H203.622C202.939 15.5613 202.299 16.2867 201.702 16.628C201.19 16.9693 200.721 17.7373 200.294 18.932Z" fill="#B7F1B3"/>
</svg>
