<svg width="19" height="18" viewBox="0 0 19 18" fill="none" xmlns="http://www.w3.org/2000/svg">
<path fill-rule="evenodd" clip-rule="evenodd" d="M15.2872 14.0363C16.0815 13.3176 16.7331 12.5909 17.1985 12.0259C17.5816 11.5607 17.7732 11.3282 17.7732 10.974C17.7732 10.6199 17.5816 10.3873 17.1985 9.9221C15.7968 8.2203 12.7052 5.05176 9.11658 5.05176C8.29526 5.05176 7.49997 5.21773 6.74502 5.4941L9.26758 8.01666C10.7828 8.09277 11.9978 9.30781 12.0739 10.823L15.2872 14.0363ZM6.53349 9.52521C6.29276 9.9535 6.15546 10.4477 6.15546 10.974C6.15546 12.6094 7.4812 13.9351 9.11658 13.9351C9.64287 13.9351 10.1371 13.7978 10.5654 13.5571L12.8371 15.8288C11.7054 16.4621 10.445 16.8963 9.11658 16.8963C5.52797 16.8963 2.43635 13.7277 1.03466 12.0259C0.651527 11.5607 0.459961 11.3282 0.459961 10.974C0.459961 10.6199 0.651527 10.3873 1.03466 9.9221C1.69667 9.11834 2.73565 7.98741 4.02591 7.01764L6.53349 9.52521Z" fill="#C4C4C4"/>
<path d="M2.20728 1.10364L17.9999 16.8963" stroke="#C4C4C4" stroke-width="2"/>
</svg>
