<svg width="22" height="14" viewBox="0 0 22 14" fill="none" xmlns="http://www.w3.org/2000/svg">
<path fill-rule="evenodd" clip-rule="evenodd" d="M21.0344 6.99998C21.0344 6.64582 20.8407 6.40662 20.4532 5.92821C18.8941 4.00316 15.2486 0.158691 11 0.158691C6.75144 0.158691 3.10591 4.00316 1.54678 5.92821C1.15931 6.40662 0.965576 6.64582 0.965576 6.99998C0.965576 7.35415 1.15931 7.59335 1.54678 8.07176C3.10591 9.99681 6.75144 13.8413 11 13.8413C15.2486 13.8413 18.8941 9.99681 20.4532 8.07176C20.8407 7.59335 21.0344 7.35415 21.0344 6.99998ZM11 10.4206C12.8892 10.4206 14.4206 8.88915 14.4206 6.99998C14.4206 5.11081 12.8892 3.57934 11 3.57934C9.11083 3.57934 7.57936 5.11081 7.57936 6.99998C7.57936 8.88915 9.11083 10.4206 11 10.4206Z" fill="#C4C4C4"/>
</svg>
